<svg width="20" height="20" viewBox="0 0 20 20" fill="none" xmlns="http://www.w3.org/2000/svg">
<g clip-path="url(#clip0_8588_10098)">
<path fill-rule="evenodd" clip-rule="evenodd" d="M9.96873 0.302979C11.7716 0.323551 13.4003 0.766641 14.8549 1.63225C16.2921 2.48057 17.4876 3.68343 18.3272 5.12579C19.1875 6.5891 19.6279 8.22768 19.6484 10.0415C19.5973 12.5233 18.8146 14.643 17.3001 16.4005C15.7857 18.1581 13.846 19.2455 11.8381 19.6623V12.7042H13.7364L14.1657 9.96982H11.2912V8.17888C11.2753 7.8076 11.3927 7.44287 11.6223 7.15063C11.8521 6.85759 12.2569 6.70357 12.8367 6.68857H14.5725V4.29332C14.5476 4.28531 14.3113 4.25362 13.8635 4.19826C13.3557 4.13884 12.8451 4.10711 12.3338 4.10319C11.1767 4.10853 10.2616 4.43493 9.58846 5.08239C8.91532 5.72966 8.57146 6.66613 8.55688 7.8918V9.96982H6.36938V12.7042H8.55688V19.6623C6.09146 19.2455 4.1518 18.1581 2.63735 16.4005C1.1229 14.643 0.340164 12.5233 0.289062 10.0415C0.309508 8.2276 0.749919 6.58902 1.6103 5.12579C2.44986 3.68343 3.64541 2.48058 5.08263 1.63225C6.53714 0.766808 8.16584 0.323718 9.96873 0.302979Z" fill="black"/>
</g>
<defs>
<clipPath id="clip0_8588_10098">
<rect width="20" height="20" fill="white"/>
</clipPath>
</defs>
</svg>
