<svg width="20" height="32" viewBox="0 0 20 32" fill="none" xmlns="http://www.w3.org/2000/svg">
<g clip-path="url(#clip0_9002_113)">
<path fill-rule="evenodd" clip-rule="evenodd" d="M9.96873 6.30298C11.7716 6.32355 13.4003 6.76664 14.8549 7.63225C16.2921 8.48057 17.4876 9.68343 18.3272 11.1258C19.1875 12.5891 19.6279 14.2277 19.6484 16.0415C19.5973 18.5233 18.8146 20.643 17.3001 22.4005C15.7857 24.1581 13.846 25.2455 11.8381 25.6623V18.7042H13.7364L14.1657 15.9698H11.2912V14.1789C11.2753 13.8076 11.3927 13.4429 11.6223 13.1506C11.8521 12.8576 12.2569 12.7036 12.8367 12.6886H14.5725V10.2933C14.5476 10.2853 14.3113 10.2536 13.8635 10.1983C13.3557 10.1388 12.8451 10.1071 12.3338 10.1032C11.1767 10.1085 10.2616 10.4349 9.58846 11.0824C8.91532 11.7297 8.57146 12.6661 8.55688 13.8918V15.9698H6.36938V18.7042H8.55688V25.6623C6.09146 25.2455 4.1518 24.1581 2.63735 22.4005C1.1229 20.643 0.340164 18.5233 0.289062 16.0415C0.309508 14.2276 0.749919 12.589 1.6103 11.1258C2.44986 9.68343 3.64541 8.48058 5.08263 7.63225C6.53714 6.76681 8.16584 6.32372 9.96873 6.30298Z" fill="white"/>
</g>
<defs>
<clipPath id="clip0_9002_113">
<rect width="20" height="20" fill="white" transform="translate(0 6)"/>
</clipPath>
</defs>
</svg>
