<svg width="20" height="32" viewBox="0 0 20 32" fill="#FCC068" xmlns="http://www.w3.org/2000/svg">
<g clip-path="url(#clip0_9002_108)">
<path d="M19.9804 11.8801C19.9336 10.8174 19.7617 10.0868 19.5156 9.45374C19.2616 8.78176 18.8709 8.18014 18.359 7.68002C17.8589 7.1721 17.2533 6.77743 16.5891 6.52745C15.9524 6.28127 15.2256 6.10943 14.1629 6.06257C13.0923 6.01175 12.7525 6 10.0371 6C7.32171 6 6.98183 6.01175 5.91518 6.05861C4.8525 6.10546 4.12192 6.27746 3.48902 6.52348C2.81689 6.77743 2.21527 7.16814 1.71514 7.68002C1.20723 8.18014 0.812713 8.78573 0.562573 9.44992C0.3164 10.0868 0.144553 10.8134 0.097699 11.8761C0.0468773 12.9467 0.0351257 13.2866 0.0351257 16.002C0.0351257 18.7173 0.0468773 19.0572 0.0937309 20.1239C0.140585 21.1865 0.312585 21.9171 0.558757 22.5502C0.812713 23.2221 1.20723 23.8238 1.71514 24.3239C2.21527 24.8318 2.82086 25.2265 3.48505 25.4765C4.12192 25.7226 4.84854 25.8945 5.91137 25.9413C6.97786 25.9883 7.31789 25.9999 10.0333 25.9999C12.7486 25.9999 13.0885 25.9883 14.1552 25.9413C15.2178 25.8945 15.9484 25.7226 16.5813 25.4765C17.9254 24.9568 18.9881 23.8941 19.5078 22.5502C19.7538 21.9133 19.9258 21.1865 19.9726 20.1239C20.0195 19.0572 20.0312 18.7173 20.0312 16.002C20.0312 13.2866 20.0273 12.9467 19.9804 11.8801ZM18.1794 20.0457C18.1363 21.0225 17.9723 21.5499 17.8355 21.9015C17.4995 22.7728 16.808 23.4643 15.9367 23.8004C15.585 23.9372 15.0538 24.1012 14.0808 24.1441C13.0259 24.1911 12.7096 24.2027 10.041 24.2027C7.37253 24.2027 7.05218 24.1911 6.0011 24.1441C5.02435 24.1012 4.4969 23.9372 4.14527 23.8004C3.71169 23.6402 3.31702 23.3862 2.99667 23.0541C2.66458 22.7298 2.41062 22.3391 2.25037 21.9055C2.11363 21.5539 1.94956 21.0225 1.90668 20.0497C1.85967 18.9948 1.84807 18.6783 1.84807 16.0097C1.84807 13.3412 1.85967 13.0209 1.90668 11.9699C1.94956 10.9932 2.11363 10.4657 2.25037 10.1141C2.41062 9.68038 2.66458 9.28586 3.00064 8.96536C3.3248 8.63327 3.7155 8.37931 4.14924 8.21921C4.50087 8.08247 5.03229 7.9184 6.00507 7.87537C7.05997 7.82851 7.3765 7.81676 10.0449 7.81676C12.7174 7.81676 13.0337 7.82851 14.0848 7.87537C15.0616 7.9184 15.589 8.08247 15.9406 8.21921C16.3742 8.37931 16.7689 8.63327 17.0892 8.96536C17.4213 9.28967 17.6753 9.68038 17.8355 10.1141C17.9723 10.4657 18.1363 10.997 18.1794 11.9699C18.2262 13.0248 18.238 13.3412 18.238 16.0097C18.238 18.6783 18.2262 18.9908 18.1794 20.0457Z" fill="#FCC068"/>
<path d="M10.0362 10.8643C7.19976 10.8643 4.89844 13.1654 4.89844 16.002C4.89844 18.8385 7.19976 21.1397 10.0362 21.1397C12.8727 21.1397 15.1739 18.8385 15.1739 16.002C15.1739 13.1654 12.8727 10.8643 10.0362 10.8643ZM10.0362 19.3347C8.19605 19.3347 6.70345 17.8422 6.70345 16.002C6.70345 14.1617 8.19605 12.6693 10.0362 12.6693C11.8764 12.6693 13.3689 14.1617 13.3689 16.002C13.3689 17.8422 11.8764 19.3347 10.0362 19.3347Z" fill="#FCC068"/>
<path d="M16.5771 10.6608C16.5771 11.3232 16.04 11.8603 15.3775 11.8603C14.7151 11.8603 14.1781 11.3232 14.1781 10.6608C14.1781 9.99833 14.7151 9.46143 15.3775 9.46143C16.04 9.46143 16.5771 9.99833 16.5771 10.6608Z" fill="#FCC068"/>
</g>
<defs>
<clipPath id="clip0_9002_108">
<rect width="20" height="20" fill="white" transform="translate(0 6)"/>
</clipPath>
</defs>
</svg>
