<svg width="120" height="29" viewBox="0 0 120 29" fill="none" xmlns="http://www.w3.org/2000/svg">
<path fill-rule="evenodd" clip-rule="evenodd" d="M29.9388 0.240211C30.8268 0.0800702 31.8013 0 32.8622 0C34.9841 0 36.7485 0.297403 38.1555 0.89221C39.5624 1.48702 40.6176 2.30488 41.321 3.34579C42.0245 4.3867 42.3762 5.58204 42.3762 6.93179C42.3762 7.66386 42.2667 8.37305 42.0476 9.05937C41.8284 9.73425 41.4825 10.3691 41.0097 10.9639C40.5368 11.5473 39.9256 12.062 39.1761 12.5081C38.4265 12.9428 37.527 13.2802 36.4775 13.5204C35.4396 13.7721 34.2345 13.8979 32.8622 13.8979C31.882 13.8979 30.9825 13.8293 30.1637 13.692C29.3565 13.5662 28.6242 13.3889 27.9668 13.1601C27.3095 12.9199 26.7271 12.6339 26.2197 12.3022C25.7238 11.9705 25.2914 11.6045 24.9224 11.2041C24.5649 10.7923 24.265 10.3577 24.0229 9.90011C23.7922 9.44256 23.6192 8.96214 23.5039 8.45884C23.4001 7.95555 23.3482 7.44653 23.3482 6.93179C23.3482 6.25691 23.4347 5.61635 23.6077 5.01011C23.7922 4.40386 24.0574 3.84337 24.4034 3.32863C24.7609 2.8139 25.1991 2.35635 25.7181 1.956C26.2485 1.54421 26.8655 1.19533 27.569 0.909368C28.2724 0.611965 29.0624 0.388912 29.9388 0.240211ZM33.9001 5.59347C33.6233 5.50197 33.2831 5.45621 32.8795 5.45621C32.4759 5.45621 32.1299 5.50197 31.8416 5.59347C31.5649 5.67355 31.34 5.78793 31.167 5.93663C31.0055 6.0739 30.8845 6.23404 30.8037 6.41705C30.7345 6.58863 30.6999 6.76593 30.6999 6.94895C30.6999 7.18916 30.7691 7.42365 30.9075 7.65242C31.0459 7.8812 31.2766 8.06993 31.5995 8.21863C31.9224 8.36734 32.349 8.44169 32.8795 8.44169C33.1909 8.44169 33.4619 8.41309 33.6925 8.3559C33.9347 8.2987 34.1365 8.22435 34.298 8.13284C34.471 8.0299 34.6093 7.91551 34.7131 7.78969C34.8284 7.65242 34.9092 7.51516 34.9553 7.3779C35.0014 7.22919 35.0245 7.08049 35.0245 6.93179C35.0245 6.76021 34.9841 6.58863 34.9034 6.41705C34.8342 6.24547 34.7189 6.09105 34.5574 5.95379C34.396 5.80509 34.1769 5.68498 33.9001 5.59347ZM23.8023 0.514736H16.7965C16.6236 1.69291 16.4448 2.86537 16.2603 4.03211C16.0873 5.19884 15.9143 6.3713 15.7413 7.54948H15.724H15.7067L14.6862 0.514736H9.4794L8.51071 7.54948H8.49341H8.47611H8.44151H8.42421C8.34349 6.96611 8.257 6.38274 8.16474 5.79937C8.07248 5.20456 7.98023 4.61547 7.88797 4.03211C7.80725 3.44874 7.72076 2.86537 7.6285 2.282C7.54777 1.68719 7.46128 1.0981 7.36903 0.514736H0L0.622735 3.08842C0.841845 3.94632 1.05519 4.80421 1.26277 5.66211L1.8855 8.23579C2.10461 9.09369 2.31796 9.95158 2.52553 10.8095L3.14827 13.3832H10.6557L11.6763 6.93179V6.91463L11.6936 6.89748H11.7109V6.91463C11.7224 6.91463 11.7282 6.92035 11.7282 6.93179L12.7661 13.3832H20.8097C21.0519 12.3079 21.2941 11.2384 21.5362 10.1746L22.2974 6.94895C22.5511 5.87372 22.799 4.80421 23.0412 3.74042L23.8023 0.514736ZM53.1204 0.514736H59.7802V1.80158V3.08842V4.37526V5.66211V6.94895V10.1746V13.3832H51.7712L49.5916 7.20632C49.5916 7.19488 49.5858 7.18916 49.5743 7.18916H49.557V7.20632V10.2947V13.3832H42.8972V10.8095V8.23579V5.66211V3.08842V0.514736H50.6468L53.0858 7.63526H53.1031H53.1204V7.61811V0.514736ZM73.6469 0.875053C72.8166 0.634842 71.8594 0.514736 70.7754 0.514736H60.4657V2.59084V4.64979V6.846V9.02505V11.2041V13.3832H70.7754C72.1131 13.3832 73.2606 13.2001 74.2177 12.8341C75.1864 12.4681 75.9764 11.9762 76.5876 11.3585C77.2103 10.7408 77.6658 10.0488 77.9541 9.28242C78.254 8.5046 78.4039 7.70962 78.4039 6.89748C78.4039 6.25691 78.3116 5.62779 78.1271 5.01011C77.9426 4.39242 77.66 3.81477 77.2795 3.27716C76.8989 2.72811 76.4088 2.24768 75.8091 1.83589C75.2095 1.42411 74.4887 1.10382 73.6469 0.875053ZM67.333 5.45621H69.3915C69.749 5.45621 70.0489 5.52484 70.291 5.66211C70.5332 5.78793 70.7177 5.96523 70.8446 6.194C70.9829 6.42277 71.0521 6.67442 71.0521 6.94895C71.0521 7.14341 71.0118 7.33214 70.9311 7.51516C70.8619 7.69818 70.7581 7.85832 70.6197 7.99558C70.4813 8.13284 70.3083 8.24151 70.1007 8.32158C69.9047 8.40165 69.6798 8.44169 69.4261 8.44169H67.333H67.3157V8.40737V5.49053V5.47337V5.45621H67.333ZM93.4772 4.83853H85.9525H85.9352V5.78221V5.81653H85.9525H93.2177V8.23579H85.9525H85.9352V8.25295V8.27011V9.23095H85.9525H93.581V13.3832H78.9294V11.3585V9.31674V7.29211V5.25032V3.20853V1.87021V0.514736H93.4772V4.83853ZM106.741 0.514736H94.2343V2.53937V4.564V6.77737V8.97358V11.1869V13.3832H101.413V12.1478V10.7752V9.52263V8.81916V8.33874V8.15V8.13284C101.644 8.71621 101.869 9.29958 102.088 9.88295C102.318 10.4663 102.543 11.0497 102.762 11.6331C102.993 12.2164 103.218 12.7998 103.437 13.3832H111.654L108.99 8.28726H105.063V8.27011V8.25295V8.23579V8.21863H105.426H105.997H106.343C107.439 8.21863 108.35 8.02418 109.076 7.63526C109.814 7.24635 110.362 6.74877 110.719 6.14253C111.088 5.52484 111.273 4.89 111.273 4.238C111.273 3.60888 111.106 3.01407 110.771 2.45358C110.437 1.88165 109.935 1.41839 109.266 1.06379C108.598 0.697754 107.756 0.514736 106.741 0.514736ZM101.413 8.13284V8.06421V7.41221V5.76505V5.7479H101.43L101.448 5.73074H103.42C103.731 5.73074 103.99 5.78793 104.198 5.90232C104.406 6.0167 104.561 6.1654 104.665 6.34842C104.769 6.53144 104.821 6.7259 104.821 6.93179C104.821 7.08049 104.792 7.22919 104.734 7.3779C104.677 7.51516 104.59 7.64098 104.475 7.75537C104.359 7.86976 104.21 7.96126 104.025 8.0299C103.852 8.09853 103.65 8.13284 103.42 8.13284H101.413ZM21.36 14.9902H28.7588L27.9549 18.474C27.6992 19.6229 27.4373 20.7779 27.1694 21.9392L26.3656 25.4229C26.1098 26.5718 25.854 27.7269 25.5983 28.8881H17.1034L16.0072 21.9207C16.0072 21.9083 16.0012 21.9021 15.989 21.9021V21.8836H15.9707L15.9524 21.9021V21.9207L14.8746 28.8881H6.94599L6.28832 26.1086C6.06909 25.182 5.84378 24.2555 5.61238 23.329L4.95471 20.5494C4.73548 19.6229 4.51017 18.6963 4.27877 17.7698L3.62109 14.9902H11.4035C11.501 15.6203 11.5923 16.2565 11.6776 16.8989C11.775 17.5289 11.8663 18.159 11.9516 18.789C12.049 19.419 12.1465 20.0552 12.2439 20.6976C12.3413 21.3277 12.4327 21.9577 12.5179 22.5878H12.5362H12.5727H12.591H12.6093L13.6323 14.9902H19.1312L20.209 22.5878H20.2273H20.2456C20.4283 21.3153 20.6109 20.0491 20.7936 18.789C20.9885 17.5289 21.1773 16.2627 21.36 14.9902ZM44.5573 19.6599H36.6104H36.5922V20.6791V20.7162H36.6104H44.2833V23.329H36.6104H36.5922V23.3475V23.366V24.4037H36.6104H44.6669V28.8881H29.1934V26.7015V24.4964V22.3098V20.1047V17.8995V16.4541V14.9902H44.5573V19.6599ZM59.7343 14.9902H45.3568V16.9174V18.8446V21.3647V23.8664V26.3865V28.8881H59.7343C60.4285 28.8881 61.0374 28.7893 61.5611 28.5916C62.0848 28.3816 62.5233 28.1037 62.8765 27.7578C63.2297 27.3995 63.4915 27.0042 63.662 26.5718C63.8447 26.1394 63.9361 25.6947 63.9361 25.2376C63.9361 24.6199 63.7777 24.0331 63.4611 23.4772C63.1444 22.9213 62.6633 22.4642 62.0179 22.106C61.3724 21.7477 60.5564 21.5686 59.5699 21.5686H59.5516V21.55H59.5699C60.4224 21.55 61.1288 21.3894 61.689 21.0682C62.2614 20.7471 62.6877 20.3332 62.9678 19.8267C63.2479 19.3078 63.388 18.7766 63.388 18.2331C63.388 17.6895 63.2479 17.1707 62.9678 16.6765C62.6999 16.1824 62.298 15.7809 61.7621 15.472C61.2262 15.1508 60.5503 14.9902 59.7343 14.9902ZM52.5547 22.6989V22.2913L52.573 22.2727H55.3315C55.4655 22.2727 55.5812 22.2974 55.6786 22.3469C55.7882 22.3839 55.8735 22.4457 55.9344 22.5322C56.0075 22.6063 56.0623 22.6928 56.0988 22.7916C56.1353 22.8781 56.1536 22.9769 56.1536 23.0881C56.1536 23.3104 56.0684 23.5081 55.8979 23.6811C55.7395 23.854 55.4959 23.9405 55.1671 23.9405H52.573H52.5547V23.9219V23.6625V23.4031V23.1066V22.6989ZM52.5547 19.697C52.5547 19.6846 52.5608 19.6785 52.573 19.6785H55.2402C55.5081 19.6785 55.7091 19.7649 55.843 19.9379C55.9892 20.0985 56.0623 20.2838 56.0623 20.4938C56.0623 20.642 56.0257 20.7841 55.9527 20.92C55.8796 21.0435 55.77 21.1485 55.6238 21.235C55.4777 21.3091 55.295 21.3462 55.0758 21.3462H52.573H52.5547V21.3277V20.9385V20.5123V20.2344V19.9564V19.697Z" fill="#A5A2A2"/>
<path d="M66.9907 21.2677C66.6075 21.2677 66.2693 21.173 65.976 20.9837C65.6826 20.7924 65.4531 20.523 65.2875 20.1756C65.1219 19.8262 65.0391 19.4134 65.0391 18.9371C65.0391 18.4647 65.1219 18.0548 65.2875 17.7074C65.4531 17.3599 65.6836 17.0915 65.9789 16.9022C66.2743 16.7128 66.6155 16.6182 67.0026 16.6182C67.302 16.6182 67.5384 16.667 67.712 16.7646C67.8876 16.8602 68.0213 16.9695 68.1131 17.0925C68.2069 17.2135 68.2798 17.3131 68.3316 17.3911H68.3915V15.1776H69.0979V21.174H68.4155V20.483H68.3316C68.2798 20.565 68.2059 20.6685 68.1101 20.7934C68.0144 20.9164 67.8777 21.0266 67.7001 21.1242C67.5225 21.2199 67.286 21.2677 66.9907 21.2677ZM67.0864 20.647C67.3698 20.647 67.6093 20.5748 67.8048 20.4303C68.0004 20.2839 68.1491 20.0819 68.2508 19.8242C68.3526 19.5646 68.4035 19.265 68.4035 18.9254C68.4035 18.5896 68.3536 18.2959 68.2538 18.0441C68.154 17.7903 68.0064 17.5932 67.8108 17.4526C67.6153 17.3101 67.3738 17.2389 67.0864 17.2389C66.7871 17.2389 66.5377 17.314 66.3381 17.4643C66.1406 17.6127 65.9919 17.8147 65.8921 18.0704C65.7944 18.3242 65.7455 18.6092 65.7455 18.9254C65.7455 19.2455 65.7954 19.5363 65.8951 19.7979C65.9969 20.0575 66.1466 20.2644 66.3441 20.4186C66.5437 20.5709 66.7911 20.647 67.0864 20.647Z" fill="#A5A2A2"/>
<path d="M70.4898 21.174V16.6767H71.1962V21.174H70.4898ZM70.849 15.9272C70.7113 15.9272 70.5925 15.8813 70.4928 15.7896C70.395 15.6978 70.3461 15.5875 70.3461 15.4587C70.3461 15.3299 70.395 15.2196 70.4928 15.1278C70.5925 15.0361 70.7113 14.9902 70.849 14.9902C70.9867 14.9902 71.1044 15.0361 71.2022 15.1278C71.3019 15.2196 71.3518 15.3299 71.3518 15.4587C71.3518 15.5875 71.3019 15.6978 71.2022 15.7896C71.1044 15.8813 70.9867 15.9272 70.849 15.9272Z" fill="#A5A2A2"/>
<path d="M74.3458 22.9542C74.0046 22.9542 73.7113 22.9113 73.4658 22.8254C73.2204 22.7414 73.0158 22.6302 72.8522 22.4916C72.6906 22.3549 72.5619 22.2086 72.4661 22.0524L73.0288 21.6659C73.0927 21.7479 73.1735 21.8416 73.2713 21.947C73.369 22.0543 73.5027 22.1471 73.6724 22.2251C73.844 22.3052 74.0685 22.3452 74.3458 22.3452C74.717 22.3452 75.0233 22.2574 75.2648 22.0817C75.5062 21.906 75.6269 21.6308 75.6269 21.256V20.3425H75.5671C75.5152 20.4245 75.4414 20.526 75.3456 20.647C75.2518 20.7661 75.1161 20.8724 74.9385 20.9661C74.7629 21.0579 74.5254 21.1037 74.2261 21.1037C73.8549 21.1037 73.5217 21.0179 73.2264 20.8461C72.933 20.6743 72.7005 20.4245 72.5289 20.0965C72.3593 19.7686 72.2745 19.3704 72.2745 18.9019C72.2745 18.4413 72.3573 18.0402 72.5229 17.6986C72.6886 17.355 72.9191 17.0896 73.2144 16.9022C73.5097 16.7128 73.851 16.6182 74.2381 16.6182C74.5374 16.6182 74.7749 16.667 74.9505 16.7646C75.1281 16.8602 75.2638 16.9695 75.3576 17.0925C75.4533 17.2135 75.5272 17.3131 75.5791 17.3911H75.6509V16.6767H76.3334V21.3028C76.3334 21.6893 76.2436 22.0036 76.064 22.2456C75.8864 22.4896 75.6469 22.6682 75.3456 22.7815C75.0463 22.8966 74.713 22.9542 74.3458 22.9542ZM74.3219 20.483C74.6053 20.483 74.8447 20.4196 75.0403 20.2927C75.2358 20.1658 75.3845 19.9833 75.4863 19.7452C75.588 19.5071 75.6389 19.2221 75.6389 18.8902C75.6389 18.5662 75.589 18.2802 75.4893 18.0324C75.3895 17.7845 75.2418 17.5902 75.0463 17.4497C74.8507 17.3092 74.6092 17.2389 74.3219 17.2389C74.0226 17.2389 73.7731 17.3131 73.5736 17.4614C73.376 17.6098 73.2274 17.8089 73.1276 18.0587C73.0298 18.3086 72.9809 18.5857 72.9809 18.8902C72.9809 19.2025 73.0308 19.4787 73.1306 19.7188C73.2323 19.957 73.382 20.1444 73.5796 20.281C73.7791 20.4157 74.0266 20.483 74.3219 20.483Z" fill="#A5A2A2"/>
<path d="M77.6264 21.174V16.6767H78.3328V21.174H77.6264ZM77.9856 15.9272C77.8479 15.9272 77.7292 15.8813 77.6294 15.7896C77.5317 15.6978 77.4828 15.5875 77.4828 15.4587C77.4828 15.3299 77.5317 15.2196 77.6294 15.1278C77.7292 15.0361 77.8479 14.9902 77.9856 14.9902C78.1233 14.9902 78.2411 15.0361 78.3388 15.1278C78.4386 15.2196 78.4885 15.3299 78.4885 15.4587C78.4885 15.5875 78.4386 15.6978 78.3388 15.7896C78.2411 15.8813 78.1233 15.9272 77.9856 15.9272Z" fill="#A5A2A2"/>
<path d="M81.6262 16.6767V17.2623H79.2435V16.6767H81.6262ZM79.938 15.5992H80.6444V19.8857C80.6444 20.0809 80.6733 20.2273 80.7312 20.3249C80.7911 20.4206 80.8669 20.485 80.9587 20.5182C81.0525 20.5494 81.1512 20.565 81.255 20.565C81.3328 20.565 81.3967 20.5611 81.4466 20.5533C81.4965 20.5435 81.5364 20.5357 81.5663 20.5299L81.71 21.1506C81.6621 21.1682 81.5952 21.1857 81.5094 21.2033C81.4236 21.2228 81.3149 21.2326 81.1832 21.2326C80.9836 21.2326 80.7881 21.1906 80.5965 21.1067C80.4069 21.0227 80.2493 20.8949 80.1236 20.7231C79.9998 20.5513 79.938 20.3347 79.938 20.0731V15.5992Z" fill="#A5A2A2"/>
<path d="M84.0417 21.2794C83.7504 21.2794 83.486 21.2257 83.2485 21.1184C83.0111 21.0091 82.8225 20.8519 82.6828 20.647C82.5431 20.4401 82.4733 20.1902 82.4733 19.8974C82.4733 19.6398 82.5252 19.4309 82.6289 19.2709C82.7327 19.1089 82.8714 18.982 83.045 18.8902C83.2186 18.7985 83.4102 18.7302 83.6197 18.6853C83.8312 18.6384 84.0437 18.6013 84.2572 18.574C84.5366 18.5389 84.7631 18.5125 84.9367 18.495C85.1123 18.4754 85.24 18.4432 85.3199 18.3983C85.4017 18.3534 85.4426 18.2754 85.4426 18.1641V18.1407C85.4426 17.8518 85.3618 17.6273 85.2001 17.4673C85.0405 17.3072 84.798 17.2272 84.4728 17.2272C84.1355 17.2272 83.8711 17.2994 83.6795 17.4438C83.488 17.5883 83.3533 17.7425 83.2755 17.9065L82.605 17.6722C82.7247 17.3989 82.8843 17.1862 83.0839 17.0339C83.2854 16.8797 83.5049 16.7724 83.7424 16.7119C83.9819 16.6494 84.2173 16.6182 84.4488 16.6182C84.5965 16.6182 84.7661 16.6357 84.9577 16.6709C85.1512 16.704 85.3378 16.7733 85.5174 16.8787C85.699 16.9842 85.8497 17.1432 85.9694 17.356C86.0891 17.5688 86.149 17.8537 86.149 18.211V21.174H85.4426V20.565H85.4067C85.3588 20.6626 85.2789 20.767 85.1672 20.8783C85.0554 20.9896 84.9068 21.0842 84.7212 21.1623C84.5356 21.2404 84.3091 21.2794 84.0417 21.2794ZM84.1495 20.6587C84.4289 20.6587 84.6643 20.605 84.8559 20.4977C85.0495 20.3903 85.1951 20.2517 85.2929 20.0819C85.3927 19.9121 85.4426 19.7335 85.4426 19.5461V18.9137C85.4126 18.9488 85.3468 18.981 85.245 19.0103C85.1452 19.0376 85.0295 19.062 84.8978 19.0835C84.7681 19.103 84.6414 19.1206 84.5177 19.1362C84.3959 19.1498 84.2972 19.1616 84.2213 19.1713C84.0377 19.1947 83.8661 19.2328 83.7065 19.2855C83.5488 19.3363 83.4211 19.4134 83.3234 19.5168C83.2276 19.6183 83.1797 19.7569 83.1797 19.9326C83.1797 20.1727 83.2705 20.3542 83.4521 20.4772C83.6356 20.5982 83.8681 20.6587 84.1495 20.6587Z" fill="#A5A2A2"/>
<path d="M88.1447 15.1776V21.174H87.4383V15.1776H88.1447Z" fill="#A5A2A2"/>
<path d="M93.1622 21.2794C92.8708 21.2794 92.6064 21.2257 92.369 21.1184C92.1315 21.0091 91.9429 20.8519 91.8032 20.647C91.6636 20.4401 91.5937 20.1902 91.5937 19.8974C91.5937 19.6398 91.6456 19.4309 91.7494 19.2709C91.8531 19.1089 91.9918 18.982 92.1654 18.8902C92.339 18.7985 92.5306 18.7302 92.7401 18.6853C92.9517 18.6384 93.1642 18.6013 93.3777 18.574C93.6571 18.5389 93.8836 18.5125 94.0572 18.495C94.2328 18.4754 94.3605 18.4432 94.4403 18.3983C94.5221 18.3534 94.563 18.2754 94.563 18.1641V18.1407C94.563 17.8518 94.4822 17.6273 94.3206 17.4673C94.1609 17.3072 93.9185 17.2272 93.5932 17.2272C93.256 17.2272 92.9916 17.2994 92.8 17.4438C92.6084 17.5883 92.4737 17.7425 92.3959 17.9065L91.7254 17.6722C91.8451 17.3989 92.0048 17.1862 92.2043 17.0339C92.4059 16.8797 92.6254 16.7724 92.8629 16.7119C93.1023 16.6494 93.3378 16.6182 93.5693 16.6182C93.7169 16.6182 93.8865 16.6357 94.0781 16.6709C94.2717 16.704 94.4583 16.7733 94.6378 16.8787C94.8194 16.9842 94.9701 17.1432 95.0898 17.356C95.2096 17.5688 95.2694 17.8537 95.2694 18.211V21.174H94.563V20.565H94.5271C94.4792 20.6626 94.3994 20.767 94.2876 20.8783C94.1759 20.9896 94.0272 21.0842 93.8416 21.1623C93.6561 21.2404 93.4296 21.2794 93.1622 21.2794ZM93.2699 20.6587C93.5493 20.6587 93.7848 20.605 93.9763 20.4977C94.1699 20.3903 94.3156 20.2517 94.4134 20.0819C94.5131 19.9121 94.563 19.7335 94.563 19.5461V18.9137C94.5331 18.9488 94.4672 18.981 94.3655 19.0103C94.2657 19.0376 94.15 19.062 94.0182 19.0835C93.8885 19.103 93.7618 19.1206 93.6381 19.1362C93.5164 19.1498 93.4176 19.1616 93.3418 19.1713C93.1582 19.1947 92.9866 19.2328 92.8269 19.2855C92.6693 19.3363 92.5416 19.4134 92.4438 19.5168C92.348 19.6183 92.3001 19.7569 92.3001 19.9326C92.3001 20.1727 92.3909 20.3542 92.5725 20.4772C92.7561 20.5982 92.9886 20.6587 93.2699 20.6587Z" fill="#A5A2A2"/>
<path d="M98.4146 22.9542C98.0734 22.9542 97.78 22.9113 97.5346 22.8254C97.2891 22.7414 97.0846 22.6302 96.921 22.4916C96.7593 22.3549 96.6306 22.2086 96.5348 22.0524L97.0976 21.6659C97.1614 21.7479 97.2422 21.8416 97.34 21.947C97.4378 22.0543 97.5715 22.1471 97.7411 22.2251C97.9127 22.3052 98.1372 22.3452 98.4146 22.3452C98.7858 22.3452 99.0921 22.2574 99.3335 22.0817C99.575 21.906 99.6957 21.6308 99.6957 21.256V20.3425H99.6358C99.584 20.4245 99.5101 20.526 99.4143 20.647C99.3205 20.7661 99.1849 20.8724 99.0073 20.9661C98.8316 21.0579 98.5942 21.1037 98.2949 21.1037C97.9237 21.1037 97.5904 21.0179 97.2951 20.8461C97.0018 20.6743 96.7693 20.4245 96.5977 20.0965C96.4281 19.7686 96.3433 19.3704 96.3433 18.9019C96.3433 18.4413 96.4261 18.0402 96.5917 17.6986C96.7573 17.355 96.9878 17.0896 97.2831 16.9022C97.5785 16.7128 97.9197 16.6182 98.3068 16.6182C98.6062 16.6182 98.8436 16.667 99.0192 16.7646C99.1968 16.8602 99.3325 16.9695 99.4263 17.0925C99.5221 17.2135 99.5959 17.3131 99.6478 17.3911H99.7196V16.6767H100.402V21.3028C100.402 21.6893 100.312 22.0036 100.133 22.2456C99.9551 22.4896 99.7157 22.6682 99.4143 22.7815C99.115 22.8966 98.7818 22.9542 98.4146 22.9542ZM98.3906 20.483C98.674 20.483 98.9135 20.4196 99.109 20.2927C99.3046 20.1658 99.4532 19.9833 99.555 19.7452C99.6568 19.5071 99.7077 19.2221 99.7077 18.8902C99.7077 18.5662 99.6578 18.2802 99.558 18.0324C99.4582 17.7845 99.3106 17.5902 99.115 17.4497C98.9194 17.3092 98.678 17.2389 98.3906 17.2389C98.0913 17.2389 97.8419 17.3131 97.6423 17.4614C97.4448 17.6098 97.2961 17.8089 97.1963 18.0587C97.0986 18.3086 97.0497 18.5857 97.0497 18.8902C97.0497 19.2025 97.0996 19.4787 97.1993 19.7188C97.3011 19.957 97.4508 20.1444 97.6483 20.281C97.8479 20.4157 98.0953 20.483 98.3906 20.483Z" fill="#A5A2A2"/>
<path d="M103.623 21.2677C103.18 21.2677 102.798 21.1721 102.476 20.9808C102.157 20.7875 101.911 20.5182 101.737 20.1727C101.565 19.8252 101.48 19.4212 101.48 18.9605C101.48 18.4998 101.565 18.0938 101.737 17.7425C101.911 17.3892 102.152 17.114 102.461 16.9168C102.773 16.7177 103.136 16.6182 103.551 16.6182C103.79 16.6182 104.027 16.6572 104.26 16.7353C104.494 16.8134 104.706 16.9402 104.898 17.1159C105.09 17.2896 105.242 17.52 105.356 17.8069C105.47 18.0938 105.527 18.4471 105.527 18.8668V19.1596H101.983V18.5623H104.808C104.808 18.3086 104.756 18.0821 104.653 17.883C104.551 17.6839 104.405 17.5268 104.216 17.4116C104.028 17.2965 103.806 17.2389 103.551 17.2389C103.27 17.2389 103.026 17.3072 102.821 17.4438C102.617 17.5785 102.46 17.7542 102.351 17.9709C102.241 18.1875 102.186 18.4198 102.186 18.6677V19.0659C102.186 19.4055 102.246 19.6935 102.366 19.9296C102.487 20.1639 102.656 20.3425 102.872 20.4655C103.087 20.5865 103.337 20.647 103.623 20.647C103.808 20.647 103.976 20.6216 104.126 20.5709C104.277 20.5182 104.408 20.4401 104.518 20.3366C104.628 20.2312 104.712 20.1004 104.772 19.9443L105.455 20.1317C105.383 20.3581 105.262 20.5572 105.093 20.729C104.923 20.8988 104.713 21.0315 104.464 21.1272C104.215 21.2209 103.934 21.2677 103.623 21.2677Z" fill="#A5A2A2"/>
<path d="M107.308 18.4686V21.174H106.601V16.6767H107.284V17.3794H107.343C107.451 17.151 107.615 16.9676 107.834 16.829C108.054 16.6884 108.337 16.6182 108.684 16.6182C108.996 16.6182 109.268 16.6806 109.502 16.8055C109.735 16.9285 109.917 17.1159 110.046 17.3677C110.176 17.6176 110.241 17.9338 110.241 18.3164V21.174H109.535V18.3632C109.535 18.0099 109.441 17.7347 109.253 17.5375C109.066 17.3384 108.808 17.2389 108.481 17.2389C108.255 17.2389 108.054 17.2867 107.876 17.3824C107.701 17.478 107.562 17.6176 107.46 17.801C107.358 17.9845 107.308 18.2071 107.308 18.4686Z" fill="#A5A2A2"/>
<path d="M113.4 21.2677C112.969 21.2677 112.597 21.1682 112.286 20.9691C111.975 20.77 111.735 20.4957 111.568 20.1463C111.4 19.7969 111.316 19.3977 111.316 18.9488C111.316 18.492 111.402 18.089 111.574 17.7396C111.747 17.3882 111.989 17.114 112.298 16.9168C112.609 16.7177 112.973 16.6182 113.388 16.6182C113.711 16.6182 114.002 16.6767 114.262 16.7938C114.521 16.911 114.734 17.0749 114.899 17.2857C115.065 17.4965 115.168 17.7425 115.207 18.0236H114.501C114.447 17.8186 114.327 17.6371 114.142 17.479C113.958 17.3189 113.711 17.2389 113.4 17.2389C113.124 17.2389 112.883 17.3092 112.675 17.4497C112.47 17.5883 112.309 17.7845 112.193 18.0382C112.08 18.29 112.023 18.5857 112.023 18.9254C112.023 19.2728 112.079 19.5754 112.19 19.833C112.304 20.0907 112.464 20.2908 112.669 20.4333C112.877 20.5757 113.12 20.647 113.4 20.647C113.583 20.647 113.75 20.6158 113.899 20.5533C114.049 20.4908 114.176 20.401 114.28 20.2839C114.383 20.1668 114.457 20.0263 114.501 19.8623H115.207C115.168 20.1278 115.069 20.3669 114.911 20.5796C114.756 20.7905 114.549 20.9583 114.292 21.0833C114.036 21.2062 113.739 21.2677 113.4 21.2677Z" fill="#A5A2A2"/>
<path d="M116.695 22.8605C116.575 22.8605 116.469 22.8507 116.375 22.8312C116.281 22.8137 116.216 22.7961 116.18 22.7785L116.36 22.1695C116.532 22.2125 116.683 22.2281 116.815 22.2164C116.947 22.2046 117.063 22.1471 117.165 22.0436C117.269 21.9421 117.364 21.7772 117.449 21.5488L117.581 21.1974L115.881 16.6767H116.647L117.916 20.2605H117.964L119.233 16.6767H120L118.048 21.8299C117.96 22.0622 117.852 22.2544 117.722 22.4067C117.592 22.5609 117.441 22.6751 117.27 22.7492C117.1 22.8234 116.909 22.8605 116.695 22.8605Z" fill="#A5A2A2"/>
</svg>
