<svg width="20" height="20" viewBox="0 0 20 20" fill="#FCC068" xmlns="http://www.w3.org/2000/svg">
<g clip-path="url(#clip0_8588_10105)">
<path d="M16.3636 17.4545H3.63636C2.67226 17.4535 1.74793 17.0701 1.0662 16.3883C0.384473 15.7066 0.00102754 14.7823 0 13.8182V5.63636C0.00102754 4.67226 0.384473 3.74793 1.0662 3.0662C1.74793 2.38447 2.67226 2.00103 3.63636 2H16.3636C17.3277 2.00103 18.2521 2.38447 18.9338 3.0662C19.6155 3.74793 19.999 4.67226 20 5.63636V13.8182C19.999 14.7823 19.6155 15.7066 18.9338 16.3883C18.2521 17.0701 17.3277 17.4535 16.3636 17.4545ZM3.63636 3.81818C3.15432 3.81873 2.69218 4.01047 2.35132 4.35132C2.01047 4.69218 1.81873 5.15432 1.81818 5.63636V13.8182C1.81873 14.3002 2.01047 14.7624 2.35132 15.1032C2.69218 15.4441 3.15432 15.6358 3.63636 15.6364H16.3636C16.8457 15.6358 17.3078 15.4441 17.6487 15.1032C17.9895 14.7624 18.1813 14.3002 18.1818 13.8182V5.63636C18.1813 5.15432 17.9895 4.69218 17.6487 4.35132C17.3078 4.01047 16.8457 3.81873 16.3636 3.81818H3.63636Z" fill="#FCC068"/>
<path d="M10.0014 11.0303C8.99026 11.0307 8.00792 10.6934 7.21024 10.0719L1.26115 5.44481C1.07079 5.29671 0.947052 5.07905 0.917168 4.83972C0.887283 4.60039 0.953697 4.35899 1.1018 4.16862C1.2499 3.97826 1.46756 3.85452 1.70689 3.82464C1.94622 3.79475 2.18762 3.86117 2.37799 4.00927L8.32702 8.6364C8.80544 9.00943 9.39473 9.21201 10.0014 9.21201C10.608 9.21201 11.1973 9.00943 11.6758 8.6364L17.6248 4.00927C17.8152 3.86117 18.0566 3.79475 18.2959 3.82464C18.5352 3.85452 18.7529 3.97826 18.901 4.16862C19.0491 4.35899 19.1155 4.60039 19.0856 4.83972C19.0557 5.07905 18.932 5.29671 18.7416 5.44481L12.7925 10.0719C11.9948 10.6932 11.0125 11.0304 10.0014 11.0303Z" fill="#FCC068"/>
</g>
<defs>
<clipPath id="clip0_8588_10105">
<rect width="20" height="20" fill="white"/>
</clipPath>
</defs>
</svg>
