<svg width="20" height="32" viewBox="0 0 20 32" fill="none" xmlns="http://www.w3.org/2000/svg">
<path d="M17.995 14.2962C16.2867 14.2962 14.7029 13.7499 13.4107 12.8219V19.5185C13.4107 22.8632 10.6898 25.5834 7.34583 25.5834C6.05362 25.5834 4.85486 25.1761 3.87013 24.4845C2.30639 23.3863 1.28093 21.5702 1.28093 19.5185C1.28093 16.1738 4.00191 13.4528 7.34663 13.4528C7.62456 13.4528 7.8961 13.476 8.16364 13.5119V14.2922V16.8758C7.90488 16.7951 7.63175 16.748 7.34663 16.748C5.81962 16.748 4.57693 17.9907 4.57693 19.5185C4.57693 20.5823 5.18071 21.5063 6.06241 21.9703C6.44656 22.1724 6.88342 22.2882 7.34743 22.2882C8.8393 22.2882 10.0564 21.1014 10.1123 19.6223L10.1147 6.41675H13.4099C13.4099 6.70266 13.4379 6.98139 13.4874 7.25293C13.7198 8.5084 14.4649 9.58577 15.4976 10.259C16.2164 10.7278 17.0741 11.0018 17.9942 11.0018L17.995 14.2962Z" fill="white"/>
</svg>
