<svg width="20" height="20" viewBox="0 0 20 20" fill="#FCC068" xmlns="http://www.w3.org/2000/svg">
<path d="M17.9953 8.29617C16.287 8.29617 14.7033 7.7499 13.4111 6.82188V13.5185C13.4111 16.8632 10.6901 19.5834 7.34616 19.5834C6.05395 19.5834 4.85518 19.1761 3.87046 18.4845C2.30671 17.3863 1.28125 15.5702 1.28125 13.5185C1.28125 10.1738 4.00223 7.45281 7.34695 7.45281C7.62488 7.45281 7.89642 7.47597 8.16397 7.5119V8.29218V10.8758C7.90521 10.7951 7.63207 10.748 7.34695 10.748C5.81995 10.748 4.57726 11.9907 4.57726 13.5185C4.57726 14.5823 5.18103 15.5063 6.06273 15.9703C6.44688 16.1724 6.88374 16.2882 7.34775 16.2882C8.83962 16.2882 10.0568 15.1014 10.1127 13.6223L10.1151 0.416748H13.4103C13.4103 0.702663 13.4382 0.98139 13.4877 1.25293C13.7201 2.5084 14.4653 3.58577 15.4979 4.25903C16.2167 4.72783 17.0744 5.00177 17.9945 5.00177L17.9953 8.29617Z" fill="#FCC068"/>
</svg>
