<svg width="20" height="32" viewBox="0 0 20 32" fill="#FCC068" xmlns="http://www.w3.org/2000/svg">
<g clip-path="url(#clip0_9002_119)">
<path d="M19.5817 11.1551C19.3517 10.2892 18.6742 9.60674 17.8133 9.37508C16.2542 8.95508 10 8.95508 10 8.95508C10 8.95508 3.74583 8.95508 2.18583 9.37508C1.32583 9.60674 0.648333 10.2884 0.418333 11.1551C0 12.7251 0 16.0001 0 16.0001C0 16.0001 0 19.2751 0.418333 20.8451C0.648333 21.7109 1.32583 22.3934 2.18667 22.6251C3.74583 23.0451 10 23.0451 10 23.0451C10 23.0451 16.2542 23.0451 17.8142 22.6251C18.6742 22.3934 19.3517 21.7117 19.5825 20.8451C20 19.2751 20 16.0001 20 16.0001C20 16.0001 20 12.7251 19.5817 11.1551ZM7.955 18.9742V13.0259L13.1817 16.0001L7.955 18.9742Z" fill="#FCC068"/>
</g>
<defs>
<clipPath id="clip0_9002_119">
<rect width="20" height="20" fill="white" transform="translate(0 6)"/>
</clipPath>
</defs>
</svg>
