<svg width="20" height="20" viewBox="0 0 20 20" fill="#FCC068" xmlns="http://www.w3.org/2000/svg">
<g clip-path="url(#clip0_8588_10102)">
<path d="M19.5817 5.15508C19.3517 4.28924 18.6742 3.60675 17.8133 3.37508C16.2542 2.95508 10 2.95508 10 2.95508C10 2.95508 3.74583 2.95508 2.18583 3.37508C1.32583 3.60675 0.648333 4.28841 0.418333 5.15508C0 6.72508 0 10.0001 0 10.0001C0 10.0001 0 13.2751 0.418333 14.8451C0.648333 15.7109 1.32583 16.3934 2.18667 16.6251C3.74583 17.0451 10 17.0451 10 17.0451C10 17.0451 16.2542 17.0451 17.8142 16.6251C18.6742 16.3934 19.3517 15.7117 19.5825 14.8451C20 13.2751 20 10.0001 20 10.0001C20 10.0001 20 6.72508 19.5817 5.15508ZM7.955 12.9742V7.02591L13.1817 10.0001L7.955 12.9742Z" fill="#FCC068"/>
</g>
<defs>
<clipPath id="clip0_8588_10102">
<rect width="20" height="20" fill="white"/>
</clipPath>
</defs>
</svg>
