<?xml version="1.0" encoding="utf-8"?><svg viewBox="0 0 120 100" xmlns="http://www.w3.org/2000/svg" xmlns:xlink="http://www.w3.org/1999/xlink"><style>:root>svg{display:none}:root>svg:target{display:block}</style><svg fill="none" viewBox="0 0 52 30" id="css--arrow" xmlns="http://www.w3.org/2000/svg"><path d="M27.427 28.45L51.412 4.397a2.016 2.016 0 00-2.855-2.847L26 24.171 3.443 1.551A2.015 2.015 0 10.589 4.396L24.573 28.45a2.013 2.013 0 002.854 0z" fill="#000"/></svg><svg fill="none" viewBox="0 0 100 100" id="css--button" xmlns="http://www.w3.org/2000/svg"><rect width="100" height="100" rx="50" fill="#FCC068"/><path d="M43.333 38L62 50 43.333 62V38z" fill="#fff"/></svg><svg viewBox="0 0 100 100" fill="none" id="css--button2" xmlns="http://www.w3.org/2000/svg"><rect width="100" height="100" rx="50" fill="#FCC068"/><path d="M43.333 38L62 50 43.333 62V38z" fill="#fff"/></svg><svg fill="none" viewBox="0 0 24 24" id="css--down" xmlns="http://www.w3.org/2000/svg"><path d="M6 9l6 6 6-6" stroke="#25282B" stroke-width="2" stroke-linecap="round" stroke-linejoin="round"/></svg><svg fill="none" viewBox="0 0 24 24" id="css--eye" xmlns="http://www.w3.org/2000/svg"><path d="M1 12s4-8 11-8 11 8 11 8-4 8-11 8-11-8-11-8z" stroke="#FCC068" stroke-width="2" stroke-linecap="round" stroke-linejoin="round"/><path d="M12 15a3 3 0 100-6 3 3 0 000 6z" stroke="#FCC068" stroke-width="2" stroke-linecap="round" stroke-linejoin="round"/></svg><svg fill="none" viewBox="0 0 20 20" id="css--facebook" xmlns="http://www.w3.org/2000/svg"><g clip-path="url(#fclip0_8588_10098)"><path fill-rule="evenodd" clip-rule="evenodd" d="M9.969.303c1.803.02 3.431.464 4.886 1.33a9.756 9.756 0 013.472 3.493c.86 1.463 1.3 3.102 1.321 4.915-.05 2.482-.833 4.602-2.348 6.36-1.514 1.757-3.454 2.845-5.462 3.261v-6.958h1.898l.43-2.734H11.29V8.179a1.557 1.557 0 01.331-1.028c.23-.293.635-.447 1.215-.462h1.736V4.293c-.025-.008-.262-.04-.71-.095a14.09 14.09 0 00-1.53-.095c-1.156.006-2.071.332-2.745.98-.673.647-1.017 1.583-1.031 2.809V9.97H6.369v2.734h2.188v6.958c-2.466-.416-4.405-1.504-5.92-3.261C1.123 14.643.34 12.523.29 10.04c.02-1.812.46-3.45 1.32-4.914a9.755 9.755 0 013.473-3.494C6.537.767 8.166.324 9.969.303z" fill="#000"/></g><defs><clipPath id="fclip0_8588_10098"><path fill="#fff" d="M0 0h20v20H0z"/></clipPath></defs></svg><svg fill="none" viewBox="0 0 20 32" id="css--facebook-w" xmlns="http://www.w3.org/2000/svg"><g clip-path="url(#gclip0_9002_113)"><path fill-rule="evenodd" clip-rule="evenodd" d="M9.969 6.303c1.803.02 3.431.464 4.886 1.33a9.756 9.756 0 013.472 3.493c.86 1.463 1.3 3.102 1.321 4.915-.05 2.482-.833 4.602-2.348 6.36-1.514 1.757-3.454 2.845-5.462 3.261v-6.958h1.898l.43-2.734H11.29v-1.791a1.557 1.557 0 01.331-1.028c.23-.293.635-.447 1.215-.462h1.736v-2.396c-.025-.008-.262-.04-.71-.095a14.066 14.066 0 00-1.53-.095c-1.156.005-2.071.332-2.745.98-.673.647-1.017 1.583-1.031 2.809v2.078H6.369v2.734h2.188v6.958c-2.466-.416-4.405-1.504-5.92-3.261C1.123 20.643.34 18.523.29 16.04c.02-1.813.46-3.452 1.321-4.915a9.755 9.755 0 013.473-3.494c1.454-.865 3.083-1.308 4.886-1.329z" fill="#fff"/></g><defs><clipPath id="gclip0_9002_113"><path fill="#fff" transform="translate(0 6)" d="M0 0h20v20H0z"/></clipPath></defs></svg><svg fill="#FCC068" viewBox="0 0 20 32" id="css--facebook-w-y" xmlns="http://www.w3.org/2000/svg"><g clip-path="url(#hclip0_9002_113)"><path fill-rule="evenodd" clip-rule="evenodd" d="M9.969 6.303c1.803.02 3.431.464 4.886 1.33a9.756 9.756 0 013.472 3.493c.86 1.463 1.3 3.102 1.321 4.915-.05 2.482-.833 4.602-2.348 6.36-1.514 1.757-3.454 2.845-5.462 3.261v-6.958h1.898l.43-2.734H11.29v-1.791a1.557 1.557 0 01.331-1.028c.23-.293.635-.447 1.215-.462h1.736v-2.396c-.025-.008-.262-.04-.71-.095a14.066 14.066 0 00-1.53-.095c-1.156.005-2.071.332-2.745.98-.673.647-1.017 1.583-1.031 2.809v2.078H6.369v2.734h2.188v6.958c-2.466-.416-4.405-1.504-5.92-3.261C1.123 20.643.34 18.523.29 16.04c.02-1.813.46-3.452 1.321-4.915a9.755 9.755 0 013.473-3.494c1.454-.865 3.083-1.308 4.886-1.329z"/></g><defs><clipPath id="hclip0_9002_113"><path fill="#fff" transform="translate(0 6)" d="M0 0h20v20H0z"/></clipPath></defs></svg><svg fill="#FCC068" viewBox="0 0 20 20" id="css--facebook-yellow" xmlns="http://www.w3.org/2000/svg"><g clip-path="url(#iclip0_8588_10098)"><path fill-rule="evenodd" clip-rule="evenodd" d="M9.969.303c1.803.02 3.431.464 4.886 1.33a9.756 9.756 0 013.472 3.493c.86 1.463 1.3 3.102 1.321 4.915-.05 2.482-.833 4.602-2.348 6.36-1.514 1.757-3.454 2.845-5.462 3.261v-6.958h1.898l.43-2.734H11.29V8.179a1.557 1.557 0 01.331-1.028c.23-.293.635-.447 1.215-.462h1.736V4.293c-.025-.008-.262-.04-.71-.095a14.09 14.09 0 00-1.53-.095c-1.156.006-2.071.332-2.745.98-.673.647-1.017 1.583-1.031 2.809V9.97H6.369v2.734h2.188v6.958c-2.466-.416-4.405-1.504-5.92-3.261C1.123 14.643.34 12.523.29 10.04c.02-1.812.46-3.45 1.32-4.914a9.755 9.755 0 013.473-3.494C6.537.767 8.166.324 9.969.303z"/></g><defs><clipPath id="iclip0_8588_10098"><path fill="#fff" d="M0 0h20v20H0z"/></clipPath></defs></svg><svg fill="none" viewBox="0 0 20 20" id="css--instagram" xmlns="http://www.w3.org/2000/svg"><g clip-path="url(#jclip0_8588_10094)" fill="#000"><path d="M19.98 5.88c-.046-1.063-.218-1.793-.464-2.426a4.88 4.88 0 00-1.157-1.774 4.922 4.922 0 00-1.77-1.153C15.952.281 15.226.11 14.163.063 13.093.012 12.753 0 10.037 0 7.322 0 6.982.012 5.915.059 4.853.105 4.122.277 3.49.523A4.88 4.88 0 001.715 1.68 4.924 4.924 0 00.563 3.45C.316 4.087.145 4.813.098 5.876c-.051 1.07-.063 1.41-.063 4.126 0 2.715.012 3.055.059 4.122.047 1.063.219 1.793.465 2.426a4.932 4.932 0 001.156 1.774 4.92 4.92 0 001.77 1.152c.637.247 1.364.419 2.426.465 1.067.047 1.407.059 4.122.059 2.716 0 3.056-.012 4.122-.059 1.063-.046 1.793-.218 2.426-.464a5.116 5.116 0 002.927-2.927c.246-.637.418-1.364.465-2.426.047-1.067.058-1.407.058-4.122s-.004-3.055-.05-4.122zm-1.8 8.166c-.044.977-.208 1.504-.344 1.856a3.318 3.318 0 01-1.9 1.898c-.35.137-.882.301-1.855.344-1.055.047-1.371.059-4.04.059-2.668 0-2.989-.012-4.04-.059-.977-.043-1.504-.207-1.856-.344a3.077 3.077 0 01-1.148-.746 3.11 3.11 0 01-.747-1.148c-.136-.352-.3-.883-.343-1.856-.047-1.055-.059-1.372-.059-4.04 0-2.669.012-2.99.059-4.04.043-.977.207-1.504.343-1.856A3.04 3.04 0 013 2.965a3.105 3.105 0 011.15-.746c.35-.137.882-.3 1.855-.344 1.055-.046 1.372-.058 4.04-.058 2.672 0 2.989.012 4.04.058.977.043 1.504.207 1.856.344.433.16.828.414 1.148.746.332.325.586.715.747 1.15.136.35.3.882.343 1.855.047 1.055.059 1.371.059 4.04 0 2.668-.012 2.98-.059 4.036z"/><path d="M10.036 4.864a5.139 5.139 0 00-5.138 5.138 5.139 5.139 0 105.138-5.138zm0 8.47a3.333 3.333 0 11.001-6.666 3.333 3.333 0 010 6.667zm6.541-8.673a1.2 1.2 0 11-2.4 0 1.2 1.2 0 012.4 0z"/></g><defs><clipPath id="jclip0_8588_10094"><path fill="#fff" d="M0 0h20v20H0z"/></clipPath></defs></svg><svg fill="none" viewBox="0 0 20 32" id="css--instagram-w" xmlns="http://www.w3.org/2000/svg"><g clip-path="url(#kclip0_9002_108)" fill="#fff"><path d="M19.98 11.88c-.046-1.063-.218-1.793-.464-2.426a4.88 4.88 0 00-1.157-1.774 4.922 4.922 0 00-1.77-1.153c-.637-.246-1.363-.418-2.426-.464-1.07-.051-1.41-.063-4.126-.063-2.715 0-3.055.012-4.122.059-1.063.046-1.793.218-2.426.464A4.88 4.88 0 001.715 7.68 4.924 4.924 0 00.563 9.45c-.247.637-.418 1.363-.465 2.426-.051 1.07-.063 1.41-.063 4.126 0 2.715.012 3.055.059 4.122.047 1.063.219 1.793.465 2.426a4.932 4.932 0 001.156 1.774 4.92 4.92 0 001.77 1.152c.637.247 1.364.419 2.426.465 1.067.047 1.407.059 4.122.059 2.716 0 3.056-.012 4.122-.059 1.063-.046 1.793-.218 2.426-.464a5.116 5.116 0 002.927-2.927c.246-.637.418-1.364.465-2.426.047-1.067.058-1.407.058-4.122s-.004-3.055-.05-4.122zm-1.8 8.166c-.044.977-.208 1.504-.345 1.855a3.317 3.317 0 01-1.898 1.9c-.352.136-.883.3-1.856.343-1.055.047-1.371.059-4.04.059-2.668 0-2.989-.012-4.04-.059-.977-.043-1.504-.207-1.856-.344a3.077 3.077 0 01-1.148-.746 3.11 3.11 0 01-.747-1.148c-.136-.352-.3-.883-.343-1.856-.047-1.055-.059-1.372-.059-4.04 0-2.669.012-2.99.059-4.04.043-.977.207-1.504.343-1.856A3.04 3.04 0 013 8.965a3.105 3.105 0 011.15-.746c.35-.137.882-.3 1.855-.344 1.055-.046 1.372-.058 4.04-.058 2.672 0 2.989.012 4.04.058.977.043 1.504.207 1.856.344.433.16.828.414 1.148.746.332.325.586.715.747 1.15.136.35.3.882.343 1.855.047 1.055.059 1.371.059 4.04 0 2.668-.012 2.98-.059 4.036z"/><path d="M10.036 10.864a5.139 5.139 0 00-5.138 5.138 5.139 5.139 0 105.138-5.138zm0 8.47a3.333 3.333 0 11.001-6.666 3.333 3.333 0 010 6.667zm6.541-8.674a1.2 1.2 0 11-2.4 0 1.2 1.2 0 012.4 0z"/></g><defs><clipPath id="kclip0_9002_108"><path fill="#fff" transform="translate(0 6)" d="M0 0h20v20H0z"/></clipPath></defs></svg><svg fill="#FCC068" viewBox="0 0 20 32" id="css--instagram-w-y" xmlns="http://www.w3.org/2000/svg"><g clip-path="url(#lclip0_9002_108)"><path d="M19.98 11.88c-.046-1.063-.218-1.793-.464-2.426a4.88 4.88 0 00-1.157-1.774 4.922 4.922 0 00-1.77-1.153c-.637-.246-1.363-.418-2.426-.464-1.07-.051-1.41-.063-4.126-.063-2.715 0-3.055.012-4.122.059-1.063.046-1.793.218-2.426.464A4.88 4.88 0 001.715 7.68 4.924 4.924 0 00.563 9.45c-.247.637-.418 1.363-.465 2.426-.051 1.07-.063 1.41-.063 4.126 0 2.715.012 3.055.059 4.122.047 1.063.219 1.793.465 2.426a4.932 4.932 0 001.156 1.774 4.92 4.92 0 001.77 1.152c.637.247 1.364.419 2.426.465 1.067.047 1.407.059 4.122.059 2.716 0 3.056-.012 4.122-.059 1.063-.046 1.793-.218 2.426-.464a5.116 5.116 0 002.927-2.927c.246-.637.418-1.364.465-2.426.047-1.067.058-1.407.058-4.122s-.004-3.055-.05-4.122zm-1.8 8.166c-.044.977-.208 1.504-.345 1.855a3.317 3.317 0 01-1.898 1.9c-.352.136-.883.3-1.856.343-1.055.047-1.371.059-4.04.059-2.668 0-2.989-.012-4.04-.059-.977-.043-1.504-.207-1.856-.344a3.077 3.077 0 01-1.148-.746 3.11 3.11 0 01-.747-1.148c-.136-.352-.3-.883-.343-1.856-.047-1.055-.059-1.372-.059-4.04 0-2.669.012-2.99.059-4.04.043-.977.207-1.504.343-1.856A3.04 3.04 0 013 8.965a3.105 3.105 0 011.15-.746c.35-.137.882-.3 1.855-.344 1.055-.046 1.372-.058 4.04-.058 2.672 0 2.989.012 4.04.058.977.043 1.504.207 1.856.344.433.16.828.414 1.148.746.332.325.586.715.747 1.15.136.35.3.882.343 1.855.047 1.055.059 1.371.059 4.04 0 2.668-.012 2.98-.059 4.036z"/><path d="M10.036 10.864a5.139 5.139 0 00-5.138 5.138 5.139 5.139 0 105.138-5.138zm0 8.47a3.333 3.333 0 11.001-6.666 3.333 3.333 0 010 6.667zm6.541-8.674a1.2 1.2 0 11-2.4 0 1.2 1.2 0 012.4 0z"/></g><defs><clipPath id="lclip0_9002_108"><path fill="#fff" transform="translate(0 6)" d="M0 0h20v20H0z"/></clipPath></defs></svg><svg fill="#FCC068" viewBox="0 0 20 20" id="css--instagram_yellow" xmlns="http://www.w3.org/2000/svg"><g clip-path="url(#mclip0_8588_10094)"><path d="M19.98 5.88c-.046-1.063-.218-1.793-.464-2.426a4.88 4.88 0 00-1.157-1.774 4.922 4.922 0 00-1.77-1.153C15.952.281 15.226.11 14.163.063 13.093.012 12.753 0 10.037 0 7.322 0 6.982.012 5.915.059 4.853.105 4.122.277 3.49.523A4.88 4.88 0 001.715 1.68 4.924 4.924 0 00.563 3.45C.316 4.087.145 4.813.098 5.876c-.051 1.07-.063 1.41-.063 4.126 0 2.715.012 3.055.059 4.122.047 1.063.219 1.793.465 2.426a4.932 4.932 0 001.156 1.774 4.92 4.92 0 001.77 1.152c.637.247 1.364.419 2.426.465 1.067.047 1.407.059 4.122.059 2.716 0 3.056-.012 4.122-.059 1.063-.046 1.793-.218 2.426-.464a5.116 5.116 0 002.927-2.927c.246-.637.418-1.364.465-2.426.047-1.067.058-1.407.058-4.122s-.004-3.055-.05-4.122zm-1.8 8.166c-.044.977-.208 1.504-.344 1.856a3.318 3.318 0 01-1.9 1.898c-.35.137-.882.301-1.855.344-1.055.047-1.371.059-4.04.059-2.668 0-2.989-.012-4.04-.059-.977-.043-1.504-.207-1.856-.344a3.077 3.077 0 01-1.148-.746 3.11 3.11 0 01-.747-1.148c-.136-.352-.3-.883-.343-1.856-.047-1.055-.059-1.372-.059-4.04 0-2.669.012-2.99.059-4.04.043-.977.207-1.504.343-1.856A3.04 3.04 0 013 2.965a3.105 3.105 0 011.15-.746c.35-.137.882-.3 1.855-.344 1.055-.046 1.372-.058 4.04-.058 2.672 0 2.989.012 4.04.058.977.043 1.504.207 1.856.344.433.16.828.414 1.148.746.332.325.586.715.747 1.15.136.35.3.882.343 1.855.047 1.055.059 1.371.059 4.04 0 2.668-.012 2.98-.059 4.036z"/><path d="M10.036 4.864a5.139 5.139 0 00-5.138 5.138 5.139 5.139 0 105.138-5.138zm0 8.47a3.333 3.333 0 11.001-6.666 3.333 3.333 0 010 6.667zm6.541-8.673a1.2 1.2 0 11-2.4 0 1.2 1.2 0 012.4 0z"/></g><defs><clipPath id="mclip0_8588_10094"><path fill="#fff" d="M0 0h20v20H0z"/></clipPath></defs></svg><svg fill="none" viewBox="0 0 16 16" id="css--left" xmlns="http://www.w3.org/2000/svg"><path d="M14 8H2m5 5L2 8l5-5" stroke="#212121" stroke-width="1.5" stroke-linecap="round" stroke-linejoin="round"/></svg><svg fill="none" viewBox="0 0 120 29" id="css--logo" xmlns="http://www.w3.org/2000/svg"><path fill-rule="evenodd" clip-rule="evenodd" d="M29.939.24A16.51 16.51 0 0132.862 0c2.122 0 3.886.297 5.294.892 1.406.595 2.462 1.413 3.165 2.454.704 1.04 1.055 2.236 1.055 3.586 0 .732-.11 1.441-.328 2.127a6.055 6.055 0 01-1.038 1.905c-.473.583-1.084 1.098-1.834 1.544-.75.435-1.649.772-2.699 1.012-1.037.252-2.242.378-3.615.378-.98 0-1.88-.069-2.698-.206a12.587 12.587 0 01-2.197-.532 8.537 8.537 0 01-1.747-.858 7.185 7.185 0 01-1.298-1.098 6.935 6.935 0 01-.9-1.304 6.328 6.328 0 01-.518-1.441 7.54 7.54 0 01-.156-1.527c0-.675.087-1.316.26-1.922.184-.606.45-1.167.795-1.681a6.188 6.188 0 011.315-1.373A7.768 7.768 0 0127.57.909c.703-.297 1.493-.52 2.37-.669zM33.9 5.593c-.277-.091-.617-.137-1.02-.137-.404 0-.75.046-1.038.137-.277.08-.502.195-.675.344a1.332 1.332 0 00-.363.48 1.343 1.343 0 00.104 1.235c.138.23.369.418.692.567.322.148.749.223 1.28.223.31 0 .582-.029.813-.086.242-.057.444-.132.605-.223.173-.103.311-.217.415-.343.115-.138.196-.275.242-.412a1.5 1.5 0 00.07-.446 1.2 1.2 0 00-.122-.515 1.196 1.196 0 00-.346-.463 1.784 1.784 0 00-.657-.36zM23.802.515h-7.005a319.91 319.91 0 01-.537 3.517l-.519 3.517h-.034L14.687.515H9.478L8.51 7.549h-.086a91.407 91.407 0 00-.26-1.75l-.276-1.767a91.407 91.407 0 00-.26-1.75A81.431 81.431 0 007.37.515H0l.623 2.573c.219.858.432 1.716.64 2.574l.623 2.574c.219.858.432 1.716.64 2.573l.622 2.574h7.508l1.02-6.451v-.017l.018-.018h.017v.018c.011 0 .017.005.017.017l1.038 6.451h8.044c.242-1.075.484-2.145.726-3.208l.761-3.226c.254-1.075.502-2.145.744-3.209l.761-3.225zm29.318 0h6.66v12.868h-8.009l-2.18-6.177c0-.011-.005-.017-.017-.017h-.017v6.194h-6.66V.515h7.75l2.439 7.12h.034V.515zm20.527.36c-.83-.24-1.788-.36-2.872-.36h-10.31v12.868h10.31c1.338 0 2.486-.183 3.443-.549.968-.366 1.758-.858 2.37-1.476a5.769 5.769 0 001.366-2.076 6.578 6.578 0 00.173-4.272 5.912 5.912 0 00-.847-1.733 5.666 5.666 0 00-1.47-1.441c-.6-.412-1.321-.732-2.163-.96zm-6.314 4.581h2.058c.358 0 .658.069.9.206.242.126.427.303.554.532a1.432 1.432 0 01.086 1.321c-.07.183-.173.343-.311.48a1.483 1.483 0 01-.52.327c-.195.08-.42.12-.674.12h-2.11V5.456h.017zm26.144-.617h-7.542v.978h7.283v2.419h-7.283v.995h7.646v4.152H78.929V.515h14.548v4.324zM106.741.515H94.234v12.868h7.179v-5.25c.231.583.456 1.167.675 1.75.23.583.455 1.167.674 1.75.231.583.456 1.167.675 1.75h8.217l-2.664-5.096h-3.927V8.22h1.28c1.096 0 2.007-.195 2.733-.584.738-.389 1.286-.886 1.643-1.492.369-.618.554-1.253.554-1.905 0-.63-.167-1.224-.502-1.784-.334-.572-.836-1.036-1.505-1.39-.668-.366-1.51-.55-2.525-.55zm-5.328 7.618V5.748h.017l.018-.017h1.972c.311 0 .57.057.778.171.208.115.363.263.467.446a1.163 1.163 0 01-.19 1.407 1.246 1.246 0 01-.45.275 1.635 1.635 0 01-.605.103h-2.007zM21.36 14.99h7.399l-.804 3.484a459.568 459.568 0 01-.786 3.465l-.803 3.484c-.256 1.149-.512 2.304-.768 3.465h-8.495l-1.096-6.967c0-.013-.006-.019-.018-.019v-.018h-.018l-.019.018v.019l-1.077 6.967H6.946l-.658-2.78c-.219-.926-.444-1.852-.676-2.779l-.657-2.78c-.22-.926-.445-1.853-.676-2.78L3.62 14.99h7.782c.098.63.19 1.266.275 1.909.097.63.188 1.26.274 1.89l.292 1.909c.097.63.189 1.26.274 1.89h.091l1.023-7.598h5.5l1.077 7.598h.037c.182-1.273.365-2.539.548-3.799.194-1.26.383-2.526.566-3.799zm23.197 4.67h-7.965v1.056h7.691v2.613h-7.691v1.075h8.075v4.484H29.193V14.99h15.364v4.67zm15.177-4.67H45.357v13.898h14.377c.694 0 1.303-.099 1.827-.296.524-.21.962-.488 1.316-.834.353-.358.614-.754.785-1.186.183-.433.274-.877.274-1.334 0-.618-.158-1.205-.475-1.76-.317-.557-.798-1.014-1.443-1.372-.646-.358-1.462-.537-2.448-.537h-.018v-.019h.018c.852 0 1.559-.16 2.119-.482.572-.32.999-.735 1.279-1.241.28-.52.42-1.05.42-1.594s-.14-1.062-.42-1.556c-.268-.495-.67-.896-1.206-1.205-.536-.321-1.212-.482-2.028-.482zm-7.18 7.709v-.408l.019-.018h2.758c.134 0 .25.024.348.074.11.037.194.099.255.185a.72.72 0 01.165.26.822.822 0 01-.2.89c-.16.172-.403.258-.732.258h-2.612V22.7zm0-3.002c0-.012.007-.018.019-.018h2.667c.268 0 .47.086.603.259.146.16.22.346.22.556a.89.89 0 01-.11.426.907.907 0 01-.33.315 1.205 1.205 0 01-.547.111h-2.521v-1.649z" fill="#A5A2A2"/><path d="M66.99 21.268a1.83 1.83 0 01-1.014-.284 1.929 1.929 0 01-.689-.808c-.165-.35-.248-.763-.248-1.239 0-.472.083-.882.248-1.23a1.9 1.9 0 01.692-.805c.295-.19.636-.284 1.024-.284.299 0 .535.049.709.147.176.095.31.204.401.328.094.12.167.22.219.298h.06v-2.213h.706v5.996h-.683v-.691h-.083a4.387 4.387 0 01-.222.31 1.307 1.307 0 01-.41.331c-.178.096-.414.144-.71.144zm.096-.621c.284 0 .523-.072.719-.217a1.36 1.36 0 00.446-.606c.102-.26.152-.559.152-.899 0-.335-.05-.63-.15-.88a1.274 1.274 0 00-.442-.592 1.197 1.197 0 00-.725-.214c-.299 0-.548.075-.748.225-.197.149-.346.35-.446.606a2.364 2.364 0 00-.146.855c0 .32.05.611.15.873.1.26.25.466.448.62.2.153.447.229.742.229zm3.404.527v-4.497h.706v4.497h-.706zm.359-5.247a.508.508 0 01-.356-.137.438.438 0 01-.147-.331c0-.13.049-.24.147-.331a.508.508 0 01.356-.138c.138 0 .255.046.353.138.1.092.15.202.15.33 0 .13-.05.24-.15.332a.498.498 0 01-.353.137zm3.497 7.027c-.341 0-.635-.043-.88-.129a1.84 1.84 0 01-1-.773l.563-.386c.064.082.145.176.242.281.098.107.232.2.401.278.172.08.397.12.674.12.371 0 .677-.088.919-.263.241-.176.362-.451.362-.826v-.913h-.06a3.716 3.716 0 01-.221.304c-.094.12-.23.225-.407.32-.176.09-.414.137-.713.137-.371 0-.704-.086-1-.258a1.823 1.823 0 01-.697-.75c-.17-.327-.254-.726-.254-1.194 0-.46.082-.862.248-1.203.166-.344.396-.61.691-.797.296-.19.637-.284 1.024-.284.3 0 .537.049.713.147.177.095.313.204.407.328.095.12.17.22.221.298h.072v-.714h.682v4.626c0 .386-.09.7-.269.943a1.531 1.531 0 01-.718.536c-.3.115-.633.172-1 .172zm-.024-2.471c.283 0 .523-.063.718-.19a1.19 1.19 0 00.446-.548 2.17 2.17 0 00.153-.855c0-.324-.05-.61-.15-.858a1.29 1.29 0 00-.443-.582 1.21 1.21 0 00-.724-.211c-.3 0-.549.074-.748.222a1.358 1.358 0 00-.446.598 2.26 2.26 0 00-.147.831c0 .313.05.589.15.829.101.238.251.425.449.562.2.135.447.202.742.202zm3.304.691v-4.497h.707v4.497h-.707zm.36-5.247a.509.509 0 01-.357-.137.438.438 0 01-.146-.331c0-.13.049-.24.146-.331a.509.509 0 01.357-.138c.137 0 .255.046.353.138.1.092.15.202.15.33 0 .13-.05.24-.15.332a.498.498 0 01-.353.137zm3.64.75v.585h-2.383v-.585h2.383zm-1.688-1.078h.706v4.287c0 .195.03.341.087.439.06.096.136.16.228.193a.932.932 0 00.296.047 1.282 1.282 0 00.311-.035l.144.62a1.509 1.509 0 01-.527.082c-.2 0-.395-.041-.587-.125a1.16 1.16 0 01-.472-.384c-.124-.172-.186-.388-.186-.65V15.6zm4.104 5.681a1.89 1.89 0 01-.793-.162 1.354 1.354 0 01-.566-.471 1.308 1.308 0 01-.21-.75c0-.257.052-.466.156-.626a1.09 1.09 0 01.416-.38 2.22 2.22 0 01.575-.206c.211-.047.424-.084.637-.111.28-.035.506-.062.68-.079.175-.02.303-.052.383-.097.082-.045.123-.123.123-.234v-.023c0-.29-.081-.514-.243-.674-.16-.16-.402-.24-.727-.24-.338 0-.602.072-.793.217a1.289 1.289 0 00-.405.463l-.67-.235c.12-.273.28-.486.479-.638a1.81 1.81 0 01.658-.322 2.79 2.79 0 01.707-.094c.148 0 .317.018.509.053.193.033.38.102.56.208.181.105.332.264.451.477.12.213.18.498.18.855v2.963h-.706v-.609h-.036a1.22 1.22 0 01-.24.313 1.37 1.37 0 01-.446.284 1.752 1.752 0 01-.68.117zm.108-.621c.279 0 .514-.054.706-.161a1.11 1.11 0 00.437-.416c.1-.17.15-.349.15-.536v-.632c-.03.035-.096.067-.198.096-.1.028-.216.052-.347.073a16.15 16.15 0 01-.677.088 2.747 2.747 0 00-.514.114.89.89 0 00-.384.232.581.581 0 00-.143.416c0 .24.09.421.272.544.184.121.416.182.698.182zm3.995-5.481v5.996h-.707v-5.996h.707zm5.017 6.102c-.291 0-.556-.054-.793-.162a1.354 1.354 0 01-.566-.471 1.309 1.309 0 01-.21-.75c0-.257.053-.466.156-.626a1.09 1.09 0 01.416-.38 2.22 2.22 0 01.575-.206c.212-.047.424-.084.638-.111.28-.035.506-.062.68-.079.175-.02.302-.052.382-.097.082-.045.123-.123.123-.234v-.023c0-.29-.08-.514-.242-.674-.16-.16-.403-.24-.728-.24-.337 0-.601.072-.793.217a1.288 1.288 0 00-.404.463l-.67-.235c.12-.273.279-.486.478-.638.202-.154.421-.262.659-.322a2.79 2.79 0 01.706-.094c.148 0 .317.018.51.053.193.033.38.102.559.208.181.105.332.264.452.477.12.213.18.498.18.855v2.963h-.707v-.609h-.036a1.218 1.218 0 01-.24.313c-.111.112-.26.206-.445.284a1.751 1.751 0 01-.68.117zm.108-.621c.28 0 .515-.054.706-.161a1.11 1.11 0 00.437-.416c.1-.17.15-.349.15-.536v-.632c-.03.035-.096.067-.198.096a3.41 3.41 0 01-.347.073 16.15 16.15 0 01-.676.088 2.75 2.75 0 00-.515.114.892.892 0 00-.383.232.581.581 0 00-.144.416c0 .24.09.421.273.544.183.121.416.182.697.182zm5.145 2.295c-.342 0-.635-.043-.88-.129a1.837 1.837 0 01-1-.773l.563-.386c.063.082.144.176.242.281.098.107.231.2.401.278.172.08.396.12.674.12.37 0 .677-.088.918-.263.242-.176.363-.451.363-.826v-.913h-.06a3.692 3.692 0 01-.222.304 1.25 1.25 0 01-.407.32c-.175.09-.413.137-.712.137a1.95 1.95 0 01-1-.258 1.823 1.823 0 01-.697-.75c-.17-.327-.255-.726-.255-1.194 0-.46.083-.862.249-1.203.165-.344.396-.61.691-.797.296-.19.637-.284 1.024-.284.3 0 .537.049.712.147.178.095.313.204.407.328.096.12.17.22.222.298h.072v-.714h.682v4.626c0 .386-.09.7-.269.943a1.533 1.533 0 01-.719.536 2.765 2.765 0 01-1 .172zm-.024-2.471c.283 0 .522-.063.718-.19a1.19 1.19 0 00.446-.548c.102-.238.153-.523.153-.855 0-.324-.05-.61-.15-.858a1.29 1.29 0 00-.443-.582 1.21 1.21 0 00-.724-.211c-.3 0-.55.074-.749.222a1.358 1.358 0 00-.446.598 2.28 2.28 0 00-.146.831c0 .313.05.589.15.829.101.238.25.425.448.562.2.135.447.202.743.202zm5.232.785c-.443 0-.825-.096-1.147-.287a1.945 1.945 0 01-.739-.808c-.172-.348-.257-.752-.257-1.212 0-.461.085-.867.257-1.218a2 2 0 01.724-.826c.312-.2.675-.299 1.09-.299.239 0 .476.04.709.117a1.766 1.766 0 011.096 1.072c.114.287.171.64.171 1.06v.293h-3.544v-.598h2.825c0-.253-.052-.48-.155-.679a1.162 1.162 0 00-.437-.471 1.25 1.25 0 00-.665-.173c-.281 0-.525.068-.73.205-.204.134-.361.31-.47.527-.11.216-.165.449-.165.697v.398c0 .34.06.628.18.864.121.234.29.413.506.535.215.122.465.182.751.182.185 0 .353-.025.503-.076.151-.053.282-.13.392-.234a1.06 1.06 0 00.254-.393l.683.188a1.482 1.482 0 01-.362.597c-.17.17-.38.303-.629.398a2.37 2.37 0 01-.841.14zm3.685-2.799v2.705h-.707v-4.497h.683v.702h.059c.108-.228.272-.411.491-.55.22-.14.503-.21.85-.21.312 0 .584.062.818.186.233.123.415.31.544.563.13.25.195.566.195.948v2.858h-.706v-2.81c0-.354-.094-.63-.282-.826-.187-.2-.445-.3-.772-.3-.226 0-.427.049-.605.144a1.042 1.042 0 00-.416.419 1.356 1.356 0 00-.152.668zm6.092 2.799c-.431 0-.803-.1-1.114-.299a1.956 1.956 0 01-.718-.823 2.73 2.73 0 01-.252-1.197c0-.457.086-.86.258-1.21a2 2 0 01.724-.822c.311-.2.675-.299 1.09-.299.323 0 .614.059.874.176.259.117.472.28.637.492.166.21.269.456.308.738h-.706a1.073 1.073 0 00-.359-.545c-.184-.16-.431-.24-.742-.24-.276 0-.517.07-.725.21a1.386 1.386 0 00-.482.59 2.15 2.15 0 00-.17.886c0 .348.056.65.167.908a1.4 1.4 0 00.479.6c.208.143.451.214.731.214.183 0 .35-.031.499-.094a1.019 1.019 0 00.602-.69h.706a1.567 1.567 0 01-.296.717c-.155.21-.362.378-.619.503a2.038 2.038 0 01-.892.185zm3.295 1.592a1.579 1.579 0 01-.515-.081l.18-.61c.172.043.323.06.455.047a.55.55 0 00.35-.172c.104-.102.199-.267.284-.495l.132-.352-1.7-4.52h.766l1.269 3.584h.048l1.269-3.584H120l-1.952 5.153a1.936 1.936 0 01-.326.577c-.13.154-.281.268-.452.342-.17.074-.361.111-.575.111z" fill="#A5A2A2"/></svg><svg fill="none" viewBox="0 0 20 20" id="css--mail" xmlns="http://www.w3.org/2000/svg"><g clip-path="url(#pclip0_8588_10105)" fill="#000"><path d="M16.364 17.454H3.636A3.64 3.64 0 010 13.819V5.636A3.64 3.64 0 013.636 2h12.728A3.64 3.64 0 0120 5.636v8.182a3.64 3.64 0 01-3.636 3.636zM3.636 3.819a1.82 1.82 0 00-1.818 1.818v8.182a1.82 1.82 0 001.818 1.818h12.728a1.82 1.82 0 001.818-1.818V5.636a1.82 1.82 0 00-1.818-1.818H3.636z"/><path d="M10.001 11.03a4.538 4.538 0 01-2.79-.958L1.26 5.445a.91.91 0 011.117-1.436l5.949 4.627a2.723 2.723 0 003.349 0l5.949-4.627a.91.91 0 011.117 1.436l-5.95 4.627a4.541 4.541 0 01-2.79.958z"/></g><defs><clipPath id="pclip0_8588_10105"><path fill="#fff" d="M0 0h20v20H0z"/></clipPath></defs></svg><svg fill="#FCC068" viewBox="0 0 20 20" id="css--mail-yellow" xmlns="http://www.w3.org/2000/svg"><g clip-path="url(#qclip0_8588_10105)"><path d="M16.364 17.454H3.636A3.64 3.64 0 010 13.819V5.636A3.64 3.64 0 013.636 2h12.728A3.64 3.64 0 0120 5.636v8.182a3.64 3.64 0 01-3.636 3.636zM3.636 3.819a1.82 1.82 0 00-1.818 1.818v8.182a1.82 1.82 0 001.818 1.818h12.728a1.82 1.82 0 001.818-1.818V5.636a1.82 1.82 0 00-1.818-1.818H3.636z"/><path d="M10.001 11.03a4.538 4.538 0 01-2.79-.958L1.26 5.445a.91.91 0 011.117-1.436l5.949 4.627a2.723 2.723 0 003.349 0l5.949-4.627a.91.91 0 011.117 1.436l-5.95 4.627a4.541 4.541 0 01-2.79.958z"/></g><defs><clipPath id="qclip0_8588_10105"><path fill="#fff" d="M0 0h20v20H0z"/></clipPath></defs></svg><svg fill="none" viewBox="0 0 24 24" id="css--telephone" xmlns="http://www.w3.org/2000/svg"><g clip-path="url(#rclip0_9302_6450)"><path d="M4.89 15.954a25.46 25.46 0 008.47 6.634c1.238.586 2.893 1.283 4.739 1.402.114.005.223.01.338.01 1.238 0 2.233-.428 3.043-1.308a.11.11 0 00.02-.025c.288-.348.617-.661.96-.994.234-.224.472-.458.701-.697 1.06-1.104 1.06-2.506-.01-3.575l-2.989-2.99c-.507-.526-1.114-.805-1.75-.805-.637 0-1.248.279-1.77.801l-1.781 1.78a9.384 9.384 0 00-.492-.258 6.118 6.118 0 01-.547-.299c-1.622-1.03-3.094-2.372-4.5-4.098-.712-.9-1.19-1.655-1.523-2.426a29.93 29.93 0 001.328-1.298c.15-.154.303-.309.458-.463.537-.537.825-1.159.825-1.79 0-.632-.283-1.253-.825-1.79L8.103 2.283c-.174-.174-.339-.344-.508-.518a27.27 27.27 0 00-1.01-1C6.075.265 5.473 0 4.836 0c-.631 0-1.238.264-1.77.77l-1.86 1.86a3.821 3.821 0 00-1.14 2.448c-.094 1.19.125 2.452.691 3.979.87 2.362 2.184 4.555 4.133 6.898zM1.28 5.182a2.63 2.63 0 01.79-1.69l1.85-1.85c.289-.28.607-.424.915-.424.304 0 .612.145.895.433.334.308.647.632.985.975.17.174.343.348.517.527l1.482 1.482c.309.308.468.622.468.93 0 .308-.16.621-.468.93-.154.154-.308.313-.462.467-.463.468-.895.91-1.373 1.333l-.025.025c-.412.413-.348.806-.248 1.104l.015.04c.383.92.915 1.795 1.745 2.84 1.492 1.84 3.064 3.267 4.794 4.366.214.139.443.248.657.358.199.1.383.194.547.298l.054.03c.165.084.324.124.483.124.398 0 .656-.253.74-.338l1.86-1.86c.29-.288.602-.442.91-.442.379 0 .687.233.881.442l2.999 2.994c.597.597.592 1.243-.015 1.875a15.88 15.88 0 01-.662.661c-.348.338-.71.687-1.039 1.08-.572.616-1.253.905-2.133.905-.085 0-.174-.006-.259-.01-1.631-.105-3.148-.741-4.287-1.284-3.093-1.496-5.808-3.62-8.061-6.315-1.855-2.233-3.103-4.312-3.929-6.54-.512-1.367-.706-2.466-.626-3.466z" fill="#000"/></g><defs><clipPath id="rclip0_9302_6450"><path fill="#fff" d="M0 0h24v24H0z"/></clipPath></defs></svg><svg fill="none" viewBox="0 0 20 32" id="css--ticktok-w" xmlns="http://www.w3.org/2000/svg"><path d="M17.995 14.296a7.834 7.834 0 01-4.584-1.474v6.697a6.072 6.072 0 01-6.065 6.064 6.028 6.028 0 01-3.476-1.098 6.063 6.063 0 01-2.59-4.966 6.072 6.072 0 016.067-6.066c.278 0 .55.023.817.059v3.364a2.735 2.735 0 00-.817-.128 2.773 2.773 0 00-2.77 2.77 2.772 2.772 0 002.77 2.77 2.772 2.772 0 002.765-2.666l.003-13.205h3.295a4.593 4.593 0 004.584 4.585l.001 3.294z" fill="#fff"/></svg><svg fill="#FCC068" viewBox="0 0 20 32" id="css--ticktok-w-y" xmlns="http://www.w3.org/2000/svg"><path d="M17.995 14.296a7.834 7.834 0 01-4.584-1.474v6.697a6.072 6.072 0 01-6.065 6.064 6.028 6.028 0 01-3.476-1.098 6.063 6.063 0 01-2.59-4.966 6.072 6.072 0 016.067-6.066c.278 0 .55.023.817.059v3.364a2.735 2.735 0 00-.817-.128 2.773 2.773 0 00-2.77 2.77 2.772 2.772 0 002.77 2.77 2.772 2.772 0 002.765-2.666l.003-13.205h3.295a4.593 4.593 0 004.584 4.585l.001 3.294z"/></svg><svg fill="none" viewBox="0 0 20 20" id="css--tik-tok" xmlns="http://www.w3.org/2000/svg"><path d="M17.995 8.296a7.834 7.834 0 01-4.584-1.474v6.696a6.072 6.072 0 01-6.065 6.065 6.028 6.028 0 01-3.476-1.098 6.062 6.062 0 01-2.589-4.966 6.072 6.072 0 016.066-6.066c.278 0 .55.023.817.059v3.364a2.735 2.735 0 00-.817-.128 2.773 2.773 0 00-2.77 2.77 2.772 2.772 0 002.77 2.77 2.772 2.772 0 002.766-2.666L10.115.417h3.295a4.594 4.594 0 004.584 4.585l.001 3.294z" fill="#000"/></svg><svg fill="#FCC068" viewBox="0 0 20 20" id="css--tik-tok-yellow" xmlns="http://www.w3.org/2000/svg"><path d="M17.995 8.296a7.834 7.834 0 01-4.584-1.474v6.696a6.072 6.072 0 01-6.065 6.065 6.028 6.028 0 01-3.476-1.098 6.062 6.062 0 01-2.589-4.966 6.072 6.072 0 016.066-6.066c.278 0 .55.023.817.059v3.364a2.735 2.735 0 00-.817-.128 2.773 2.773 0 00-2.77 2.77 2.772 2.772 0 002.77 2.77 2.772 2.772 0 002.766-2.666L10.115.417h3.295a4.594 4.594 0 004.584 4.585l.001 3.294z"/></svg><svg fill="none" viewBox="0 0 20 20" id="css--youtube" xmlns="http://www.w3.org/2000/svg"><g clip-path="url(#wclip0_8588_10102)"><path d="M19.582 5.155a2.514 2.514 0 00-1.769-1.78c-1.559-.42-7.813-.42-7.813-.42s-6.254 0-7.814.42a2.513 2.513 0 00-1.768 1.78C0 6.725 0 10 0 10s0 3.275.418 4.845c.23.866.908 1.548 1.769 1.78 1.559.42 7.813.42 7.813.42s6.254 0 7.814-.42a2.515 2.515 0 001.768-1.78C20 13.275 20 10 20 10s0-3.275-.418-4.845zm-11.627 7.82v-5.95L13.182 10l-5.227 2.974z" fill="#000"/></g><defs><clipPath id="wclip0_8588_10102"><path fill="#fff" d="M0 0h20v20H0z"/></clipPath></defs></svg><svg fill="none" viewBox="0 0 20 32" id="css--youtube-w" xmlns="http://www.w3.org/2000/svg"><g clip-path="url(#xclip0_9002_119)"><path d="M19.582 11.155a2.514 2.514 0 00-1.769-1.78c-1.559-.42-7.813-.42-7.813-.42s-6.254 0-7.814.42a2.513 2.513 0 00-1.768 1.78C0 12.725 0 16 0 16s0 3.275.418 4.845c.23.866.908 1.548 1.769 1.78 1.559.42 7.813.42 7.813.42s6.254 0 7.814-.42a2.515 2.515 0 001.768-1.78C20 19.275 20 16 20 16s0-3.275-.418-4.845zm-11.627 7.82v-5.95L13.182 16l-5.227 2.974z" fill="#fff"/></g><defs><clipPath id="xclip0_9002_119"><path fill="#fff" transform="translate(0 6)" d="M0 0h20v20H0z"/></clipPath></defs></svg><svg fill="#FCC068" viewBox="0 0 20 32" id="css--youtube-w-y" xmlns="http://www.w3.org/2000/svg"><g clip-path="url(#yclip0_9002_119)"><path d="M19.582 11.155a2.514 2.514 0 00-1.769-1.78c-1.559-.42-7.813-.42-7.813-.42s-6.254 0-7.814.42a2.513 2.513 0 00-1.768 1.78C0 12.725 0 16 0 16s0 3.275.418 4.845c.23.866.908 1.548 1.769 1.78 1.559.42 7.813.42 7.813.42s6.254 0 7.814-.42a2.515 2.515 0 001.768-1.78C20 19.275 20 16 20 16s0-3.275-.418-4.845zm-11.627 7.82v-5.95L13.182 16l-5.227 2.974z"/></g><defs><clipPath id="yclip0_9002_119"><path fill="#fff" transform="translate(0 6)" d="M0 0h20v20H0z"/></clipPath></defs></svg><svg fill="#FCC068" viewBox="0 0 20 20" id="css--youtube-yellow" xmlns="http://www.w3.org/2000/svg"><g clip-path="url(#zclip0_8588_10102)"><path d="M19.582 5.155a2.514 2.514 0 00-1.769-1.78c-1.559-.42-7.813-.42-7.813-.42s-6.254 0-7.814.42a2.513 2.513 0 00-1.768 1.78C0 6.725 0 10 0 10s0 3.275.418 4.845c.23.866.908 1.548 1.769 1.78 1.559.42 7.813.42 7.813.42s6.254 0 7.814-.42a2.515 2.515 0 001.768-1.78C20 13.275 20 10 20 10s0-3.275-.418-4.845zm-11.627 7.82v-5.95L13.182 10l-5.227 2.974z"/></g><defs><clipPath id="zclip0_8588_10102"><path fill="#fff" d="M0 0h20v20H0z"/></clipPath></defs></svg></svg>